<svg width="30" height="30" xmlns="http://www.w3.org/2000/svg" viewBox="0 0 183.5 184.6">
    <path className="a"
          d="M183.42,145.25c0,4.66.17,9.33,0,14-.57,12.61-6.48,20.5-18.69,23.12a95.41,95.41,0,0,1-41.6-.13c-12.06-2.77-17.6-9.73-18.39-23.36a205.54,205.54,0,0,1,.52-30.39c1.24-13.67,6.31-19,19.7-22a89.15,89.15,0,0,1,38.13,0c14,3.06,19.64,10,20.33,24.27C183.61,135.59,183.42,140.38,183.42,145.25Zm-13.22-.16c-.28-5.09-.4-10.41-.91-15.7-.58-5.87-3-9.19-8.92-9.54-10.72-.63-21.51-.46-32.26-.16-5.59.15-9,3.92-9.2,9.33-.38,10.44-.28,20.91,0,31.36.11,4.67,3,7.55,7.69,8.42a94,94,0,0,0,35.14,0c4.94-1,7.37-4.08,7.66-9S169.89,150.14,170.2,145.09Z" fill="#fff"/>
    <path className="a"
          d="M79,144.83c0,4.66.17,9.33,0,14-.57,12.61-6.48,20.5-18.69,23.12a95.56,95.56,0,0,1-41.6-.13C6.66,179.05,1.12,172.09.33,158.46a206.91,206.91,0,0,1,.52-30.39c1.24-13.67,6.31-19,19.7-22a89.15,89.15,0,0,1,38.13,0c14,3.06,19.64,10,20.33,24.27C79.2,135.17,79,140,79,144.83Zm-13.22-.16c-.28-5.09-.4-10.41-.91-15.7-.58-5.87-3-9.19-8.92-9.54-10.72-.63-21.51-.46-32.26-.16-5.59.15-9,3.92-9.2,9.33-.38,10.44-.28,20.91,0,31.36.11,4.67,3,7.55,7.69,8.42a94.37,94.37,0,0,0,35.14,0c4.94-.95,7.37-4.08,7.66-9S65.48,149.72,65.79,144.67Z" fill="#fff"/>
    <path className="a"
          d="M79,40.82c0,4.66.17,9.33,0,14-.57,12.61-6.48,20.5-18.69,23.12a95.25,95.25,0,0,1-41.6-.13C6.66,75,1.12,68.08.33,54.45A206.93,206.93,0,0,1,.85,24.06c1.24-13.67,6.31-19,19.7-22a89.15,89.15,0,0,1,38.13,0c14,3.06,19.64,10,20.33,24.27C79.2,31.16,79,36,79,40.82Zm-13.22-.16c-.28-5.09-.4-10.41-.91-15.7-.58-5.87-3-9.19-8.92-9.54-10.72-.63-21.51-.46-32.26-.16-5.59.15-9,3.92-9.2,9.33C14.12,35,14.22,45.5,14.5,56c.11,4.67,3,7.55,7.69,8.42a94,94,0,0,0,35.14,0c4.94-1,7.37-4.08,7.66-9S65.48,45.71,65.79,40.66Z" fill="#fff"/>
    <path className="a"
          d="M183,40.82c0,4.66.17,9.33,0,14-.57,12.61-6.48,20.5-18.69,23.12a95.25,95.25,0,0,1-41.6-.13c-12.06-2.77-17.6-9.73-18.39-23.36a204.2,204.2,0,0,1,.52-30.39c1.24-13.67,6.31-19,19.7-22a89.15,89.15,0,0,1,38.13,0c14,3.06,19.64,10,20.33,24.27C183.14,31.16,183,36,183,40.82Zm-13.22-.16c-.28-5.09-.4-10.41-.91-15.7-.58-5.87-3-9.19-8.92-9.54-10.72-.63-21.51-.46-32.26-.16-5.59.15-9,3.92-9.2,9.33-.38,10.44-.28,20.91,0,31.36.11,4.67,3,7.55,7.69,8.42a94,94,0,0,0,35.14,0c4.94-1,7.37-4.08,7.66-9S169.42,45.71,169.73,40.66Z" fill="#fff"/>
    <path className="b"
          d="M159.9,15.42c-10.72-.63-21.51-.46-32.26-.16-5.59.15-9,3.92-9.2,9.33-.38,10.44-.28,20.91,0,31.36.11,4.67,3,7.55,7.69,8.42a94,94,0,0,0,35.14,0c4.94-1,7.37-4.08,7.66-9s.49-9.66.8-14.71c-.28-5.09-.4-10.41-.91-15.7C168.24,19.09,165.82,15.77,159.9,15.42Z" fill="transparent"/>
    <path className="b"
          d="M56,15c-10.72-.63-21.51-.46-32.26-.16-5.59.15-9,3.92-9.2,9.33-.38,10.44-.28,20.91,0,31.36.11,4.67,3,7.55,7.69,8.42a94.37,94.37,0,0,0,35.14,0c4.94-1,7.37-4.08,7.66-9s.49-9.66.8-14.71c-.28-5.09-.4-10.41-.91-15.7C64.3,18.67,61.88,15.35,56,15Z" fill="transparent"/>
    <path className="b"
          d="M56,119.43c-10.72-.63-21.51-.46-32.26-.16-5.59.15-9,3.92-9.2,9.33-.38,10.44-.28,20.91,0,31.36.11,4.67,3,7.55,7.69,8.42a94.37,94.37,0,0,0,35.14,0c4.94-.95,7.37-4.08,7.66-9s.49-9.66.8-14.71c-.28-5.09-.4-10.41-.91-15.7C64.3,123.1,61.88,119.78,56,119.43Z" fill="transparent"/>
    <path className="b"
          d="M160.37,119.43c-10.72-.63-21.51-.46-32.26-.16-5.59.15-9,3.92-9.2,9.33-.38,10.44-.28,20.91,0,31.36.11,4.67,3,7.55,7.69,8.42a94.37,94.37,0,0,0,35.14,0c4.94-.95,7.37-4.08,7.66-9s.49-9.66.8-14.71c-.28-5.09-.4-10.41-.91-15.7C168.71,123.1,166.29,119.78,160.37,119.43Z" fill="transparent"/>
  </svg>