<svg width="30" height="30" fill="white" xmlns="http://www.w3.org/2000/svg" viewBox="0 0 122.89 122.87">
    <path
      d="M113.53,122.87c-2.92-1-4.8-3.3-6.87-5.36L80.3,91.1c-.28-.28-.53-.6-.82-.95-12.92,9-26.95,11.91-42.16,8A48.23,48.23,0,0,1,8.48,77.7a49.91,49.91,0,1,1,81.66,1.76,8.49,8.49,0,0,1,.92.69q13.75,13.75,27.49,27.5c1.8,1.79,3.63,3.54,4.34,6.1v3.12c-.17.34-.36.67-.5,1a7.44,7.44,0,0,1-3.53,4,23.48,23.48,0,0,1-2.45,1ZM49.85,84.47a34.56,34.56,0,1,0-34.48-34.6A34.58,34.58,0,0,0,49.85,84.47Z"/>
</svg>